<?xml version="1.0" encoding="UTF-8"?>
<svg version="1.1" xmlns="http://www.w3.org/2000/svg" width="200" height="179">
<path d="M0 0 C66 0 132 0 200 0 C200 59.07 200 118.14 200 179 C134 179 68 179 0 179 C0 119.93 0 60.86 0 0 Z " fill="#FBFDFD" transform="translate(0,0)"/>
<path d="M0 0 C1.01126953 -0.00064453 2.02253906 -0.00128906 3.06445312 -0.00195312 C4.11439453 0.01802734 5.16433594 0.03800781 6.24609375 0.05859375 C7.29990234 0.05150391 8.35371094 0.04441406 9.43945312 0.03710938 C17.21240219 0.10159459 17.21240219 0.10159459 19.50756836 2.02319336 C19.89565674 2.50925049 20.28374512 2.99530762 20.68359375 3.49609375 C20.68359375 2.50609375 20.68359375 1.51609375 20.68359375 0.49609375 C24.77291057 0.44608329 28.86210516 0.41009018 32.95166016 0.38623047 C34.33841051 0.37626772 35.7251404 0.36269257 37.11181641 0.34521484 C50.52895132 0.18052799 62.61940445 0.61672385 72.87109375 10.12109375 C79.85034807 17.47129269 83.06132743 25.98125268 82.89453125 36.0390625 C82.03806753 46.01527878 77.36318629 54.44935206 69.93359375 61.05859375 C67.00066692 63.49609375 67.00066692 63.49609375 64.68359375 63.49609375 C64.74160156 64.21152344 64.79960937 64.92695312 64.859375 65.6640625 C65.41397109 77.91271336 61.45371966 87.6551387 53.41015625 96.85546875 C48.32026504 101.78493359 42.64139462 105.69069791 36.68359375 109.49609375 C35.87019531 110.01816406 35.05679688 110.54023437 34.21875 111.078125 C31.13441698 112.84821247 29.37512516 113.6684977 25.86328125 112.79296875 C22.49908334 111.42083889 19.44727558 109.82505402 16.30859375 107.99609375 C15.24898437 107.38765625 14.189375 106.77921875 13.09765625 106.15234375 C12.30101562 105.60578125 11.504375 105.05921875 10.68359375 104.49609375 C10.68359375 103.83609375 10.68359375 103.17609375 10.68359375 102.49609375 C9.72259766 102.71265625 9.72259766 102.71265625 8.7421875 102.93359375 C-5.17507735 105.92030931 -5.17507735 105.92030931 -11.7421875 101.7734375 C-15.52721016 98.70221564 -18.0030692 94.44266713 -18.51953125 89.5859375 C-18.68840933 81.8316188 -17.30656531 74.60449573 -12.31640625 68.49609375 C-11.82140625 68.99109375 -11.82140625 68.99109375 -11.31640625 69.49609375 C-11.25582031 68.73683594 -11.19523437 67.97757812 -11.1328125 67.1953125 C-11.04902344 66.20144531 -10.96523438 65.20757812 -10.87890625 64.18359375 C-10.79769531 63.19746094 -10.71648438 62.21132812 -10.6328125 61.1953125 C-10.31640625 58.49609375 -10.31640625 58.49609375 -9.31640625 55.49609375 C-10.97929688 55.54830078 -10.97929688 55.54830078 -12.67578125 55.6015625 C-14.13930773 55.62970724 -15.60285064 55.65700667 -17.06640625 55.68359375 C-17.79601563 55.70873047 -18.525625 55.73386719 -19.27734375 55.75976562 C-22.36539533 55.80187542 -24.77023317 55.78705252 -27.52856445 54.31762695 C-29.93810147 51.86268285 -29.8189934 50.46000517 -29.8125 47.05859375 C-29.81314453 45.99898437 -29.81378906 44.939375 -29.81445312 43.84765625 C-29.79447266 42.74164063 -29.77449219 41.635625 -29.75390625 40.49609375 C-29.76099609 39.39007813 -29.76808594 38.2840625 -29.77539062 37.14453125 C-29.71146094 29.05988546 -29.71146094 29.05988546 -28.04003906 26.67456055 C-25.94298105 25.24077882 -24.82718537 25.14622655 -22.3046875 25.203125 C-21.54736328 25.21279297 -20.79003906 25.22246094 -20.00976562 25.23242188 C-19.22408203 25.25755859 -18.43839844 25.28269531 -17.62890625 25.30859375 C-16.43297852 25.32889648 -16.43297852 25.32889648 -15.21289062 25.34960938 C-13.24710658 25.38492286 -11.28167043 25.43872928 -9.31640625 25.49609375 C-9.33735352 24.88088867 -9.35830078 24.26568359 -9.37988281 23.63183594 C-9.46317642 20.83675566 -9.51510638 18.0419366 -9.56640625 15.24609375 C-9.61667969 13.79396484 -9.61667969 13.79396484 -9.66796875 12.3125 C-9.68085937 11.37792969 -9.69375 10.44335938 -9.70703125 9.48046875 C-9.72797852 8.62163086 -9.74892578 7.76279297 -9.77050781 6.87792969 C-8.72980693 1.41928571 -5.13370397 -0.01030055 0 0 Z " fill="#F0FAFB" transform="translate(72.31640625,6.50390625)"/>
<path d="M0 0 C4.96311044 -0.09233694 9.92318635 -0.17181375 14.88647461 -0.21972656 C16.57114821 -0.23971886 18.25575351 -0.26692223 19.94018555 -0.30175781 C38.01586189 -0.66594922 38.01586189 -0.66594922 45 4 C46.19689453 4.79470703 46.19689453 4.79470703 47.41796875 5.60546875 C55.14899808 12.51731617 60.17257074 19.72570735 61.21484375 30.1484375 C61.64613805 39.98194744 58.20028192 48.46493517 52 56 C49.81346564 58.20931076 47.60242537 60.28964312 45 62 C44.34 62 43.68 62 43 62 C43.05800781 62.71542969 43.11601562 63.43085937 43.17578125 64.16796875 C43.73037734 76.41661961 39.77012591 86.15904495 31.7265625 95.359375 C26.63667129 100.28883984 20.95780087 104.19460416 15 108 C14.18660156 108.52207031 13.37320313 109.04414062 12.53515625 109.58203125 C9.45082323 111.35211872 7.69153141 112.17240395 4.1796875 111.296875 C0.81548959 109.92474514 -2.23631817 108.32896027 -5.375 106.5 C-6.43460938 105.8915625 -7.49421875 105.283125 -8.5859375 104.65625 C-9.38257812 104.1096875 -10.17921875 103.563125 -11 103 C-11 102.34 -11 101.68 -11 101 C-11.96099609 101.2165625 -11.96099609 101.2165625 -12.94140625 101.4375 C-26.8586711 104.42421556 -26.8586711 104.42421556 -33.42578125 100.27734375 C-37.21080391 97.20612189 -39.68666295 92.94657338 -40.203125 88.08984375 C-40.37200308 80.33552505 -38.99015906 73.10840198 -34 67 C-34.06960937 68.73636719 -34.06960937 68.73636719 -34.140625 70.5078125 C-34.17816248 72.04684906 -34.21456051 73.5859137 -34.25 75.125 C-34.28351562 75.88554688 -34.31703125 76.64609375 -34.3515625 77.4296875 C-34.44665838 82.94524838 -33.49735514 85.71507252 -30 90 C-28.3959472 91.6040528 -26.71890543 91.28596984 -24.5 91.375 C-11.32947924 91.13248333 -1.61828383 78.71866318 7 70 C7.57363281 69.3915625 8.14726563 68.783125 8.73828125 68.15625 C14.2808806 62.32483034 19.80944228 58.65838017 27.4375 56.0625 C34.46057481 53.61417809 40.94628726 50.72767905 44.5 43.875 C47.12764844 37.81681054 48.32432401 31.23783682 46.31640625 24.8125 C43.77478556 19.244136 40.38983399 15.81136168 34.953125 12.90625 C30.57505098 11.56271406 26.24394208 11.52956482 21.6875 11.375 C20.75615234 11.33632813 19.82480469 11.29765625 18.86523438 11.2578125 C16.57713461 11.16394174 14.28859511 11.08089918 12 11 C12 14.3 12 17.6 12 21 C10.01432292 20.70703125 8.02864583 20.4140625 6.04296875 20.12109375 C3.7974658 19.86095201 3.7974658 19.86095201 1 21 C0.505 10.605 0.505 10.605 0 0 Z " fill="#48B1B9" transform="translate(94,8)"/>
<path d="M0 0 C2.62697064 -0.22137393 5.00893964 -0.28162025 7.625 -0.1875 C8.33140625 -0.17396484 9.0378125 -0.16042969 9.765625 -0.14648438 C11.51074128 -0.1111104 13.25546608 -0.05730221 15 0 C15.0543251 3.02107902 15.09382927 6.04116528 15.125 9.0625 C15.14175781 9.91005859 15.15851563 10.75761719 15.17578125 11.63085938 C15.21596135 16.83418201 14.69745815 21.07469821 13 26 C14.92480874 20.99549728 15.51863018 16.28615374 16 11 C16.71186441 3.28813559 16.71186441 3.28813559 19 1 C21.625 1.375 21.625 1.375 24 2 C23.67 3.98 23.34 5.96 23 8 C23.66 8 24.32 8 25 8 C25.0272415 9.41655793 25.04650467 10.83327045 25.0625 12.25 C25.07410156 13.03890625 25.08570313 13.8278125 25.09765625 14.640625 C25 17 25 17 24.44921875 18.96875 C23.87137632 21.58160275 24.31377359 23.61759926 24.75 26.25 C25.24181322 31.27447019 24.69293701 33.85509741 21.734375 37.90234375 C15.88733459 44.97410208 15.88733459 44.97410208 13.0859375 48.19140625 C8.9358494 53.77925895 7.46203915 58.98388359 7.5625 65.875 C7.56842163 66.92445801 7.56842163 66.92445801 7.57446289 67.99511719 C7.71307097 72.99892683 8.59901573 76.85128267 11.02734375 81.203125 C12.06289523 83.11619199 12.5541716 84.8787954 13 87 C9.77208445 89.1519437 8.71599191 89.20086443 5 89 C4.20044999 87.48329636 3.41078612 85.96138002 2.625 84.4375 C2.18414062 83.59058594 1.74328125 82.74367188 1.2890625 81.87109375 C-1.65175152 75.3210989 -2.27280536 69.61736364 -2.125 62.5625 C-2.11597656 61.73556641 -2.10695313 60.90863281 -2.09765625 60.05664062 C-2.07431512 58.03763292 -2.03845288 56.01877644 -2 54 C-3.66289063 54.05220703 -3.66289063 54.05220703 -5.359375 54.10546875 C-6.82290148 54.13361349 -8.28644439 54.16091292 -9.75 54.1875 C-10.47960938 54.21263672 -11.20921875 54.23777344 -11.9609375 54.26367188 C-15.04898908 54.30578167 -17.45382692 54.29095877 -20.2121582 52.8215332 C-22.62169522 50.3665891 -22.50258715 48.96391142 -22.49609375 45.5625 C-22.49673828 44.50289062 -22.49738281 43.44328125 -22.49804688 42.3515625 C-22.47806641 41.24554688 -22.45808594 40.13953125 -22.4375 39 C-22.44458984 37.89398438 -22.45167969 36.78796875 -22.45898438 35.6484375 C-22.39505469 27.56379171 -22.39505469 27.56379171 -20.72363281 25.1784668 C-18.6265748 23.74468507 -17.51077912 23.6501328 -14.98828125 23.70703125 C-14.23095703 23.71669922 -13.47363281 23.72636719 -12.69335938 23.73632812 C-11.90767578 23.76146484 -11.12199219 23.78660156 -10.3125 23.8125 C-9.11657227 23.83280273 -9.11657227 23.83280273 -7.89648438 23.85351562 C-5.93070033 23.88882911 -3.96526418 23.94263553 -2 24 C-2.01047363 23.37955811 -2.02094727 22.75911621 -2.03173828 22.11987305 C-2.07330886 19.30912323 -2.09932933 16.4984381 -2.125 13.6875 C-2.14175781 12.71103516 -2.15851562 11.73457031 -2.17578125 10.72851562 C-2.18222656 9.79072266 -2.18867187 8.85292969 -2.1953125 7.88671875 C-2.20578613 7.02264404 -2.21625977 6.15856934 -2.22705078 5.26831055 C-2 3 -2 3 0 0 Z " fill="#12658D" transform="translate(65,8)"/>
<path d="M0 0 C1.09883076 10.81737835 -2.42870835 20.09006626 -8.9375 28.6875 C-14.44269895 34.98441652 -20.99687876 39.526932 -28 44 C-28.81339844 44.52207031 -29.62679687 45.04414062 -30.46484375 45.58203125 C-33.54917677 47.35211872 -35.30846859 48.17240395 -38.8203125 47.296875 C-42.18451041 45.92474514 -45.23631817 44.32896027 -48.375 42.5 C-49.43460938 41.8915625 -50.49421875 41.283125 -51.5859375 40.65625 C-52.38257812 40.1096875 -53.17921875 39.563125 -54 39 C-54 38.34 -54 37.68 -54 37 C-56.97 37.495 -56.97 37.495 -60 38 C-58.2409226 36.82728173 -56.46467827 35.67845067 -54.65234375 34.58984375 C-46.60492244 29.69191682 -39.81437287 24.04503554 -33.3515625 17.19140625 C-27.11967875 10.61132269 -21.40330385 6.40497507 -13 3 C-11.96617188 2.5771875 -10.93234375 2.154375 -9.8671875 1.71875 C-2.36248159 -1.1812408 -2.36248159 -1.1812408 0 0 Z " fill="#F5FDFC" transform="translate(137,72)"/>
<path d="M0 0 C3.114375 -0.0825 6.22875 -0.165 9.4375 -0.25 C10.39970459 -0.28641602 11.36190918 -0.32283203 12.35327148 -0.36035156 C18.56193304 -0.43890212 23.73429708 0.56115977 29 4 C32.22505758 7.60198849 33.79320635 10.71328395 34.5625 15.5 C33.73908717 20.62345764 32.31653334 24.87093795 28.41015625 28.46118164 C22.51013599 32.48937994 17.48767124 32.6081886 10.5 32.3125 C7.035 32.209375 3.57 32.10625 0 32 C0 21.44 0 10.88 0 0 Z " fill="#024E7F" transform="translate(10,131)"/>
<path d="M0 0 C3.77068832 -0.086985 7.54111932 -0.14038579 11.3125 -0.1875 C12.38435547 -0.21263672 13.45621094 -0.23777344 14.56054688 -0.26367188 C15.58857422 -0.27333984 16.61660156 -0.28300781 17.67578125 -0.29296875 C19.0975769 -0.31653442 19.0975769 -0.31653442 20.5480957 -0.34057617 C23.39771408 0.05524357 24.24976105 0.77824719 26 3 C26 2.01 26 1.02 26 0 C35.9 0 45.8 0 56 0 C56 0.33 56 0.66 56 1 C46.43 1 36.86 1 27 1 C27.33 1.66 27.66 2.32 28 3 C28.15004973 4.3734635 28.24838006 5.7528526 28.31640625 7.1328125 C28.35830078 7.93847656 28.40019531 8.74414062 28.44335938 9.57421875 C28.48267578 10.41597656 28.52199219 11.25773437 28.5625 12.125 C28.60568359 12.97449219 28.64886719 13.82398438 28.69335938 14.69921875 C28.79954236 16.79928223 28.90028497 18.89961948 29 21 C29.9075 20.79375 30.815 20.5875 31.75 20.375 C35 20 35 20 39 22 C39 18.7 39 15.4 39 12 C39.33 12 39.66 12 40 12 C39.96519531 12.83144531 39.93039063 13.66289062 39.89453125 14.51953125 C39.85392578 16.14955078 39.85392578 16.14955078 39.8125 17.8125 C39.77769531 18.89144531 39.74289063 19.97039063 39.70703125 21.08203125 C39.77501068 23.92297326 39.77501068 23.92297326 41.078125 25.7265625 C49.11978576 31.05498 60.61693552 32.82930108 70 34 C70.61922351 40.06839039 70.14904491 43.80664444 66.38671875 48.6875 C65 50 65 50 62 51 C62 47.7 62 44.4 62 41 C60.7625 40.9175 59.525 40.835 58.25 40.75 C50.98767273 39.94689904 44.01169603 37.58798518 37.5625 34.1875 C34.45634103 32.74806048 33.2203823 33.00911314 30 34 C28.33333333 34.33333333 26.66666667 34.66666667 25 35 C25.66 32.03 26.32 29.06 27 26 C26.01 26 25.02 26 24 26 C24 27.65 24 29.3 24 31 C21.07472177 28.07472177 21.03092772 24.97111955 21 21 C21.48874801 16.96165782 22.19602518 12.98665199 23 9 C22.34 9 21.68 9 21 9 C21 7.02 21 5.04 21 3 C19.35 3.33 17.7 3.66 16 4 C15.95101562 4.83402344 15.90203125 5.66804687 15.8515625 6.52734375 C15.40835384 13.19839823 14.89658286 19.57269141 13 26 C12.01 26.66 11.02 27.32 10 28 C10.31710938 26.88625 10.63421875 25.7725 10.9609375 24.625 C12.17680662 19.76152351 12.44088145 14.99421565 12.625 10 C12.66367188 9.12988281 12.70234375 8.25976562 12.7421875 7.36328125 C12.83540887 5.24249514 12.91874136 3.12127815 13 1 C8.71 1 4.42 1 0 1 C0 0.67 0 0.34 0 0 Z " fill="#4BB4B9" transform="translate(67,7)"/>
<path d="M0 0 C-0.99 0.36351563 -1.98 0.72703125 -3 1.1015625 C-4.33358941 1.60870213 -5.66690838 2.11655329 -7 2.625 C-7.64839844 2.86089844 -8.29679687 3.09679687 -8.96484375 3.33984375 C-17.69936725 6.71258055 -23.7951445 12.6020628 -30.125 19.3125 C-39.16839618 28.61535661 -49.12198625 36.94164138 -62.5 38.375 C-66.8157512 37.91259809 -69.63855179 36.72752745 -73 34 C-77.6066065 28.05990215 -78.63951862 23.31519545 -78 16 C-76.86263648 10.63478176 -75.49972459 6.2839766 -72 2 C-72.06960937 3.73636719 -72.06960937 3.73636719 -72.140625 5.5078125 C-72.17816248 7.04684906 -72.21456051 8.5859137 -72.25 10.125 C-72.28351563 10.88554688 -72.31703125 11.64609375 -72.3515625 12.4296875 C-72.44665838 17.94524838 -71.49735514 20.71507252 -68 25 C-66.3959472 26.6040528 -64.71890543 26.28596984 -62.5 26.375 C-52.13580764 26.18415793 -45.67296528 19.19794611 -38.6015625 12.42578125 C-36 10 -36 10 -33 8 C-33.66 9.65 -34.32 11.3 -35 13 C-31.89646135 13.33040589 -31.89646135 13.33040589 -29.84375 11.1015625 C-28.68359375 9.87566406 -28.68359375 9.87566406 -27.5 8.625 C-22.90323499 3.79839674 -19.49218329 1.71491634 -13 0 C-13 0.66 -13 1.32 -13 2 C-12.46375 1.690625 -11.9275 1.38125 -11.375 1.0625 C-7.38038215 -0.72456588 -4.17953643 -1.39317881 0 0 Z " fill="#065180" transform="translate(132,73)"/>
<path d="M0 0 C3.01125 -0.061875 6.0225 -0.12375 9.125 -0.1875 C10.06230957 -0.21481201 10.99961914 -0.24212402 11.96533203 -0.27026367 C18.36607109 -0.33365757 22.50041752 0.82087681 27.4375 5.125 C29.38545642 8.70923981 29.32177129 10.87955442 28.6875 14.84375 C27.62926594 18.16275683 25.69732012 19.89477454 23 22 C20.11584117 23.44207941 17.58278472 23.09394887 14.375 23.0625 C13.18648437 23.05347656 11.99796875 23.04445312 10.7734375 23.03515625 C9.85820313 23.02355469 8.94296875 23.01195312 8 23 C8 25.97 8 28.94 8 32 C5.36 32 2.72 32 0 32 C0 21.44 0 10.88 0 0 Z " fill="#094C78" transform="translate(99,131)"/>
<path d="M0 0 C4.26950028 -0.092369 8.53546837 -0.17182767 12.80517578 -0.21972656 C14.25418917 -0.23971295 15.70312325 -0.26691197 17.15185547 -0.30175781 C26.72546456 -0.52608773 33.78243728 -0.46979609 41.42578125 6.078125 C49.3220989 15.16788196 50.80248704 21.94726191 50 34 C49.70191682 35.6733306 49.38106538 37.34359484 49 39 C48.67 39 48.34 39 48 39 C47.97421875 38.2265625 47.9484375 37.453125 47.921875 36.65625 C47.51780518 29.23605877 46.78899026 23.07004173 41.578125 17.47265625 C35.41720871 11.99452192 29.56280541 11.64214817 21.6875 11.375 C20.75615234 11.33632813 19.82480469 11.29765625 18.86523438 11.2578125 C16.57713461 11.16394174 14.28859511 11.08089918 12 11 C12 14.3 12 17.6 12 21 C10.01432292 20.70703125 8.02864583 20.4140625 6.04296875 20.12109375 C3.7974658 19.86095201 3.7974658 19.86095201 1 21 C0.67 14.07 0.34 7.14 0 0 Z " fill="#074F7C" transform="translate(94,8)"/>
<path d="M0 0 C3.00099588 -0.10890711 5.99796378 -0.18773555 9 -0.25 C9.83917969 -0.28351562 10.67835937 -0.31703125 11.54296875 -0.3515625 C18.55876675 -0.46033456 23.67185322 1.12802778 29.0234375 5.74609375 C34.06517615 12.05555281 35.74070912 16.88068848 35 25 C34 28.5625 34 28.5625 33 31 C32.34 31 31.68 31 31 31 C31 28.03 31 25.06 31 22 C29.30423828 22.07154297 29.30423828 22.07154297 27.57421875 22.14453125 C22.72444055 22.14132726 18.44259579 21.04198737 13.8125 19.6875 C13.03197266 19.47416016 12.25144531 19.26082031 11.44726562 19.04101562 C7.26890096 17.85377884 3.51346536 16.65386025 0 14 C-1.10370043 10.6888987 -0.92673641 8.75251051 -0.5625 5.3125 C-0.46066406 4.31863281 -0.35882813 3.32476563 -0.25390625 2.30078125 C-0.17011719 1.54152344 -0.08632812 0.78226563 0 0 Z " fill="#F6FCFC" transform="translate(107,19)"/>
<path d="M0 0 C0.97468277 9.94176428 -2.98707241 18.84980992 -8.9375 26.6875 C-14.44269895 32.98441652 -20.99687876 37.526932 -28 42 C-28.81339844 42.52207031 -29.62679687 43.04414062 -30.46484375 43.58203125 C-33.56510193 45.36125811 -35.32112524 46.16739378 -38.8515625 45.296875 C-42.10357925 43.9573346 -44.91371002 42.39394156 -47.875 40.5 C-49.32519531 39.58734375 -49.32519531 39.58734375 -50.8046875 38.65625 C-51.52914062 38.1096875 -52.25359375 37.563125 -53 37 C-53 36.34 -53 35.68 -53 35 C-50.39419224 32.98980544 -48.83434422 31.95828279 -45.5 32.125 C-43 33 -43 33 -40.5 34.6875 C-39.675 35.120625 -38.85 35.55375 -38 36 C-27.6561253 32.76645261 -17.93207597 25.1887033 -12.7265625 15.671875 C-11.4311848 12.8084085 -10.32257499 9.91049393 -9.2734375 6.94921875 C-8.08051935 3.7833975 -7.44757813 2.25108041 -4.4375 0.5625 C-2 0 -2 0 0 0 Z " fill="#136088" transform="translate(137,74)"/>
<path d="M0 0 C8.58 0 17.16 0 26 0 C26 1.98 26 3.96 26 6 C20.06 6 14.12 6 8 6 C8 8.31 8 10.62 8 13 C13.28 13 18.56 13 24 13 C24 14.98 24 16.96 24 19 C18.72 19 13.44 19 8 19 C8 21.31 8 23.62 8 26 C13.94 26 19.88 26 26 26 C26 27.98 26 29.96 26 32 C17.42 32 8.84 32 0 32 C0 21.44 0 10.88 0 0 Z " fill="#0E5380" transform="translate(164,131)"/>
<path d="M0 0 C8.25 0 16.5 0 25 0 C25 1.98 25 3.96 25 6 C19.39 6 13.78 6 8 6 C8 8.31 8 10.62 8 13 C12.95 13 17.9 13 23 13 C23 14.98 23 16.96 23 19 C18.05 19 13.1 19 8 19 C8 21.31 8 23.62 8 26 C13.94 26 19.88 26 26 26 C26 27.98 26 29.96 26 32 C17.42 32 8.84 32 0 32 C0 21.44 0 10.88 0 0 Z " fill="#114F78" transform="translate(133,131)"/>
<path d="M0 0 C8.25 0 16.5 0 25 0 C25 1.98 25 3.96 25 6 C19.39 6 13.78 6 8 6 C8 8.31 8 10.62 8 13 C12.95 13 17.9 13 23 13 C23 14.98 23 16.96 23 19 C18.05 19 13.1 19 8 19 C8 21.31 8 23.62 8 26 C13.94 26 19.88 26 26 26 C26 27.98 26 29.96 26 32 C17.42 32 8.84 32 0 32 C0 21.44 0 10.88 0 0 Z " fill="#094E7C" transform="translate(49,131)"/>
<path d="M0 0 C0.33 0 0.66 0 1 0 C1.02578125 0.94359375 1.0515625 1.8871875 1.078125 2.859375 C1.52716777 13.02407032 3.22776125 21.86212581 8 31 C11.465 30.505 11.465 30.505 15 30 C14.690625 29.29875 14.38125 28.5975 14.0625 27.875 C12.96602262 24.90806121 12.47940637 22.11830091 12 19 C14.77109307 18.94607603 17.54113818 18.90636545 20.3125 18.875 C21.09818359 18.85824219 21.88386719 18.84148437 22.69335938 18.82421875 C23.45068359 18.81777344 24.20800781 18.81132813 24.98828125 18.8046875 C26.03302612 18.78897705 26.03302612 18.78897705 27.09887695 18.77294922 C29 19 29 19 32 21 C17.53109734 34.93695771 17.53109734 34.93695771 7.8125 35.625 C5.03016745 35.52226772 3.52870467 35.39592496 1.2890625 33.71875 C-2.64367539 29.08130186 -3.15712492 25.9292151 -3.1875 20 C-3.20167969 18.741875 -3.21585938 17.48375 -3.23046875 16.1875 C-3 13 -3 13 -1 11 C-0.53709779 8.33757179 -0.53709779 8.33757179 -0.375 5.375 C-0.30023438 4.37210937 -0.22546875 3.36921875 -0.1484375 2.3359375 C-0.09945312 1.56507812 -0.05046875 0.79421875 0 0 Z " fill="#ECF6F9" transform="translate(62,65)"/>
<path d="M0 0 C11.46428571 0 11.46428571 0 15 3 C17.37162473 5.37162473 17.94704164 6.58515949 18.375 9.9375 C17.94784142 13.42596178 17.15059932 15.23494374 15 18 C10.32832544 21.02407505 5.37959324 20.12808555 0 20 C0 13.4 0 6.8 0 0 Z " fill="#EDF4F7" transform="translate(18,137)"/>
<path d="M0 0 C0.89684329 2.47483338 1.07680043 3.74046753 0.3203125 6.296875 C-3.43326262 14.00029061 -8.65864296 20.14447148 -16.5 23.9375 C-20.01747501 25.00530491 -23.23485629 25.51663226 -26.88671875 25.7890625 C-29.00635623 26.00063445 -30.94049142 26.47103148 -33 27 C-33.66 27 -34.32 27 -35 27 C-41.08788093 28.30454591 -44.57123683 31.91680768 -49 36 C-50.65651812 37.34592097 -52.31806068 38.6859849 -54 40 C-54.66 39.01 -55.32 38.02 -56 37 C-54.43638038 33.16202456 -51.97489917 30.8332373 -49 28 C-48.360625 27.236875 -47.72125 26.47375 -47.0625 25.6875 C-44.30843798 23.43417653 -42.45968858 23.68548286 -39 24 C-39 24.66 -39 25.32 -39 26 C-31.49496951 22.85307799 -24.09657987 19.67667616 -16.890625 15.8828125 C-15 15 -15 15 -13 15 C-12.7525 14.4225 -12.505 13.845 -12.25 13.25 C-10.82800599 10.69041079 -9.09561473 9.03012677 -7 7 C-6.34 6.01 -5.68 5.02 -5 4 C-4.34 4.99 -3.68 5.98 -3 7 C-2.01 4.69 -1.02 2.38 0 0 Z " fill="#28839C" transform="translate(152,48)"/>
<path d="M0 0 C2.64 0 5.28 0 8 0 C8 2.64 8 5.28 8 8 C10.64 8 13.28 8 16 8 C16 10.31 16 12.62 16 15 C13.36 15 10.72 15 8 15 C8 17.64 8 20.28 8 23 C5.36 23 2.72 23 0 23 C0 20.36 0 17.72 0 15 C-2.64 15 -5.28 15 -8 15 C-8 12.36 -8 9.72 -8 7 C-5.36 7 -2.72 7 0 7 C0 4.69 0 2.38 0 0 Z " fill="#40AAB4" transform="translate(96,47)"/>
<path d="M0 0 C3.77068832 -0.086985 7.54111932 -0.14038579 11.3125 -0.1875 C12.38435547 -0.21263672 13.45621094 -0.23777344 14.56054688 -0.26367188 C15.58857422 -0.27333984 16.61660156 -0.28300781 17.67578125 -0.29296875 C19.0975769 -0.31653442 19.0975769 -0.31653442 20.5480957 -0.34057617 C23.39771408 0.05524357 24.24976105 0.77824719 26 3 C26 2.01 26 1.02 26 0 C35.9 0 45.8 0 56 0 C56 0.33 56 0.66 56 1 C46.43 1 36.86 1 27 1 C27.33 1.66 27.66 2.32 28 3 C28.15004973 4.3734635 28.24838006 5.7528526 28.31640625 7.1328125 C28.35830078 7.93847656 28.40019531 8.74414062 28.44335938 9.57421875 C28.48267578 10.41597656 28.52199219 11.25773437 28.5625 12.125 C28.60568359 12.97449219 28.64886719 13.82398438 28.69335938 14.69921875 C28.79954236 16.79928223 28.90028497 18.89961948 29 21 C29.9075 20.79375 30.815 20.5875 31.75 20.375 C35 20 35 20 39 22 C39 18.7 39 15.4 39 12 C39.33 12 39.66 12 40 12 C40 16.62 40 21.24 40 26 C37.525 25.01 37.525 25.01 35 24 C32.51948778 24.26259783 32.51948778 24.26259783 30 25 C28.00102872 25.33944795 26.00124361 25.67421616 24 26 C24 27.65 24 29.3 24 31 C21.07472177 28.07472177 21.03092772 24.97111955 21 21 C21.48874801 16.96165782 22.19602518 12.98665199 23 9 C22.34 9 21.68 9 21 9 C21 7.02 21 5.04 21 3 C19.35 3.33 17.7 3.66 16 4 C15.95101562 4.83402344 15.90203125 5.66804687 15.8515625 6.52734375 C15.40835384 13.19839823 14.89658286 19.57269141 13 26 C12.01 26.66 11.02 27.32 10 28 C10.31710938 26.88625 10.63421875 25.7725 10.9609375 24.625 C12.17680662 19.76152351 12.44088145 14.99421565 12.625 10 C12.66367188 9.12988281 12.70234375 8.25976562 12.7421875 7.36328125 C12.83540887 5.24249514 12.91874136 3.12127815 13 1 C8.71 1 4.42 1 0 1 C0 0.67 0 0.34 0 0 Z " fill="#C6DAE1" transform="translate(67,7)"/>
<path d="M0 0 C3.114375 -0.0825 6.22875 -0.165 9.4375 -0.25 C10.39970459 -0.28641602 11.36190918 -0.32283203 12.35327148 -0.36035156 C18.56193304 -0.43890212 23.73429708 0.56115977 29 4 C32.22505758 7.60198849 33.79320635 10.71328395 34.5625 15.5 C33.86922373 19.81371901 32.43008395 23.36374299 30 27 C29.34 27.33 28.68 27.66 28 28 C27.505 25.525 27.505 25.525 27 23 C26.01 22.67 25.02 22.34 24 22 C24.11859375 21.40832031 24.2371875 20.81664062 24.359375 20.20703125 C25.26244216 14.89152587 25.26244216 14.89152587 23.25 10 C21.08206652 7.80851145 21.08206652 7.80851145 18 7 C18 6.34 18 5.68 18 5 C17.01 4.67 16.02 4.34 15 4 C15 3.34 15 2.68 15 2 C10.71 2 6.42 2 2 2 C1.67 11.9 1.34 21.8 1 32 C0.67 32 0.34 32 0 32 C0 21.44 0 10.88 0 0 Z " fill="#1F5C85" transform="translate(10,131)"/>
<path d="M0 0 C-0.99 0.36351563 -1.98 0.72703125 -3 1.1015625 C-17.526101 6.56657299 -26.25280628 14.98110757 -37 26 C-38.32 25.01 -39.64 24.02 -41 23 C-41.7425 23.515625 -42.485 24.03125 -43.25 24.5625 C-46 26 -46 26 -48.125 25.75 C-48.74375 25.5025 -49.3625 25.255 -50 25 C-50.99 24.67 -51.98 24.34 -53 24 C-52.21625 23.525625 -51.4325 23.05125 -50.625 22.5625 C-46.50839087 19.83769681 -42.9851745 16.46294155 -39.3671875 13.12109375 C-37.31419756 11.28153346 -35.23387691 9.61106791 -33 8 C-33.66 9.65 -34.32 11.3 -35 13 C-31.89646135 13.33040589 -31.89646135 13.33040589 -29.84375 11.1015625 C-28.68359375 9.87566406 -28.68359375 9.87566406 -27.5 8.625 C-22.90323499 3.79839674 -19.49218329 1.71491634 -13 0 C-13 0.66 -13 1.32 -13 2 C-12.46375 1.690625 -11.9275 1.38125 -11.375 1.0625 C-7.38038215 -0.72456588 -4.17953643 -1.39317881 0 0 Z " fill="#0F5E88" transform="translate(132,73)"/>
<path d="M0 0 C8.58 0 17.16 0 26 0 C26 1.98 26 3.96 26 6 C20.06 6 14.12 6 8 6 C8 5.67 8 5.34 8 5 C13.28 5 18.56 5 24 5 C24 4.01 24 3.02 24 2 C16.74 2 9.48 2 2 2 C2 11.24 2 20.48 2 30 C9.26 30 16.52 30 24 30 C24 29.34 24 28.68 24 28 C22.94039062 28.01160156 21.88078125 28.02320313 20.7890625 28.03515625 C19.40104342 28.04453476 18.01302245 28.05363489 16.625 28.0625 C15.92632812 28.07087891 15.22765625 28.07925781 14.5078125 28.08789062 C9.2265625 28.11328125 9.2265625 28.11328125 7 27 C7 24.36 7 21.72 7 19 C7.33 19 7.66 19 8 19 C8 21.31 8 23.62 8 26 C13.94 26 19.88 26 26 26 C26 27.98 26 29.96 26 32 C17.42 32 8.84 32 0 32 C0 21.44 0 10.88 0 0 Z " fill="#225577" transform="translate(164,131)"/>
<path d="M0 0 C0.66 0 1.32 0 2 0 C2.67119549 1.4562545 3.33681807 2.91507867 4 4.375 C4.556875 5.59316406 4.556875 5.59316406 5.125 6.8359375 C6 9 6 9 6 11 C6.78375 11.061875 7.5675 11.12375 8.375 11.1875 C11 12 11 12 12.375 14.4375 C13 17 13 17 12 19 C5.73 19 -0.54 19 -7 19 C-8.125 8.375 -8.125 8.375 -7 5 C-4.625 5.25 -4.625 5.25 -2 6 C-0.8125 8 -0.8125 8 0 10 C0.66 10.33 1.32 10.66 2 11 C1.484375 9.9275 0.96875 8.855 0.4375 7.75 C-0.63240282 5.28522388 -1.03572782 4.27867697 -0.6875 1.5625 C-0.460625 1.046875 -0.23375 0.53125 0 0 Z " fill="#36879C" transform="translate(82,63)"/>
<path d="M0 0 C0.33333333 1.33333333 0.66666667 2.66666667 1 4 C1.185625 4.598125 1.37125 5.19625 1.5625 5.8125 C2.17700838 8.88504188 2.06006223 11.87676408 2 15 C3.32 15.33 4.64 15.66 6 16 C3.43376728 17.89761129 0.89322061 19.63943343 -2 21 C-5.39398142 20.32120372 -7.10636002 18.92909332 -10 17 C-12.48051222 17.26259783 -12.48051222 17.26259783 -15 18 C-15.7425 18.144375 -16.485 18.28875 -17.25 18.4375 C-17.8275 18.623125 -18.405 18.80875 -19 19 C-19.33 19.66 -19.66 20.32 -20 21 C-20 20.34 -20 19.68 -20 19 C-21.98 19.33 -23.96 19.66 -26 20 C-24.2409226 18.82728173 -22.46467827 17.67845067 -20.65234375 16.58984375 C-12.92651705 11.88764994 -6.38561887 6.38561887 0 0 Z " fill="#E4F4F8" transform="translate(103,90)"/>
<path d="M0 0 C1.02534922 10.45856208 -3.32428127 19.37108402 -9.8125 27.3125 C-11.19170426 28.88969769 -12.5815822 30.4579728 -14 32 C-14.66 31.67 -15.32 31.34 -16 31 C-14.68938409 26.76570244 -13.05643741 22.92592596 -11 19 C-11.99 18.67 -12.98 18.34 -14 18 C-13.61908203 17.14728516 -13.61908203 17.14728516 -13.23046875 16.27734375 C-12.88628906 15.50519531 -12.54210937 14.73304687 -12.1875 13.9375 C-11.81882812 13.12023437 -11.45015625 12.30296875 -11.0703125 11.4609375 C-10.41880306 9.96294134 -9.79997716 8.44942165 -9.2421875 6.9140625 C-8.08007239 3.74830066 -7.43346187 2.24316154 -4.4375 0.5625 C-2 0 -2 0 0 0 Z " fill="#56B3B7" transform="translate(137,74)"/>
<path d="M0 0 C8.25 0 16.5 0 25 0 C25 1.98 25 3.96 25 6 C19.72 6 14.44 6 9 6 C9 5.67 9 5.34 9 5 C13.95 5 18.9 5 24 5 C24 4.01 24 3.02 24 2 C16.74 2 9.48 2 2 2 C2 11.24 2 20.48 2 30 C9.26 30 16.52 30 24 30 C24 29.34 24 28.68 24 28 C18.72 27.67 13.44 27.34 8 27 C8 26.67 8 26.34 8 26 C13.94 26 19.88 26 26 26 C26 27.98 26 29.96 26 32 C17.42 32 8.84 32 0 32 C0 21.44 0 10.88 0 0 Z " fill="#1F5172" transform="translate(49,131)"/>
<path d="M0 0 C2.97 0 5.94 0 9 0 C9 0.66 9 1.32 9 2 C7.68 2 6.36 2 5 2 C5 6.62 5 11.24 5 16 C8.3 16 11.6 16 15 16 C15.33 16.99 15.66 17.98 16 19 C16.99 19.66 17.98 20.32 19 21 C14.05 21 9.1 21 4 21 C4 23.31 4 25.62 4 28 C2.68 28 1.36 28 0 28 C0 18.76 0 9.52 0 0 Z " fill="#064F7F" transform="translate(101,133)"/>
<path d="M0 0 C1.175625 0.804375 1.175625 0.804375 2.375 1.625 C5.90694791 3.47506795 8.18703089 2.8224051 12 2 C11.814375 2.763125 11.62875 3.52625 11.4375 4.3125 C10.77180827 7.08967375 10.77180827 7.08967375 12 10 C9.875 11.625 9.875 11.625 7 13 C2.5421308 11.89791567 -1.02486593 9.96241637 -4.875 7.5 C-5.84179688 6.8915625 -6.80859375 6.283125 -7.8046875 5.65625 C-8.52914062 5.1096875 -9.25359375 4.563125 -10 4 C-10 3.34 -10 2.68 -10 2 C-6.37758846 -0.79443176 -4.34474297 -1.52066004 0 0 Z " fill="#12527B" transform="translate(94,107)"/>
<path d="M0 0 C0.33 0 0.66 0 1 0 C1.33 9.57 1.66 19.14 2 29 C7.61 29 13.22 29 19 29 C19 28.34 19 27.68 19 27 C18.14535156 27.01160156 17.29070313 27.02320313 16.41015625 27.03515625 C15.30542969 27.04417969 14.20070313 27.05320313 13.0625 27.0625 C11.96035156 27.07410156 10.85820312 27.08570313 9.72265625 27.09765625 C7 27 7 27 6 26 C5.91330568 24.5112814 5.89296506 23.018555 5.90234375 21.52734375 C5.90556641 20.62822266 5.90878906 19.72910156 5.91210938 18.80273438 C5.92048828 17.85720703 5.92886719 16.91167969 5.9375 15.9375 C5.94201172 14.98810547 5.94652344 14.03871094 5.95117188 13.06054688 C5.9629989 10.70696935 5.97947975 8.35351523 6 6 C6.33 6 6.66 6 7 6 C7 12.27 7 18.54 7 25 C15.96519678 24.51932583 15.96519678 24.51932583 24 21 C25.5 22.25 25.5 22.25 27 24 C27 25.32 27 26.64 27 28 C21.41583861 31.58176008 16.5099783 31.35490198 10.125 31.1875 C6.78375 31.125625 3.4425 31.06375 0 31 C0 20.77 0 10.54 0 0 Z " fill="#0C486F" transform="translate(11,132)"/>
<path d="M0 0 C7.59 0 15.18 0 23 0 C24.89852123 3.79704246 25.24941352 5.02108141 25.23046875 9.02734375 C25.22853516 9.98447266 25.22660156 10.94160156 25.22460938 11.92773438 C25.20624023 13.41756836 25.20624023 13.41756836 25.1875 14.9375 C25.18685547 15.92685547 25.18621094 16.91621094 25.18554688 17.93554688 C25.1582447 22.44647255 24.99276058 26.58382464 24 31 C21.07472177 28.07472177 21.03092772 24.97111955 21 21 C21.48874801 16.96165782 22.19602518 12.98665199 23 9 C22.34 9 21.68 9 21 9 C21 7.02 21 5.04 21 3 C19.35 3.33 17.7 3.66 16 4 C15.95101562 4.83402344 15.90203125 5.66804687 15.8515625 6.52734375 C15.40835384 13.19839823 14.89658286 19.57269141 13 26 C12.01 26.66 11.02 27.32 10 28 C10.31710938 26.88625 10.63421875 25.7725 10.9609375 24.625 C12.17680662 19.76152351 12.44088145 14.99421565 12.625 10 C12.66367188 9.12988281 12.70234375 8.25976562 12.7421875 7.36328125 C12.83540887 5.24249514 12.91874136 3.12127815 13 1 C8.71 1 4.42 1 0 1 C0 0.67 0 0.34 0 0 Z " fill="#5FB1BD" transform="translate(67,7)"/>
<path d="M0 0 C1.60332791 -0.08121924 3.20784026 -0.13929134 4.8125 -0.1875 C6.15248047 -0.23970703 6.15248047 -0.23970703 7.51953125 -0.29296875 C10 0 10 0 11.76171875 1.32421875 C13 3 13 3 14 6 C14.66 6.33 15.32 6.66 16 7 C16 9.64 16 12.28 16 15 C13.36 15 10.72 15 8 15 C8 12.36 8 9.72 8 7 C5.36 7 2.72 7 0 7 C0 4.69 0 2.38 0 0 Z " fill="#2D7A94" transform="translate(88,55)"/>
<path d="M0 0 C1.5 1.375 1.5 1.375 3 3 C3 3.66 3 4.32 3 5 C0.5859375 6.98046875 0.5859375 6.98046875 -2.625 9.1875 C-3.66914062 9.92355469 -4.71328125 10.65960938 -5.7890625 11.41796875 C-9.49835305 13.24553891 -11.10881281 13.25558656 -15 12 C-16.375 9.9375 -16.375 9.9375 -17 8 C-14.38586755 5.00143631 -12.78055443 3.20294415 -8.875 2.1875 C-6.91982315 2.05998847 -4.95933042 2 -3 2 C-2.01 1.34 -1.02 0.68 0 0 Z " fill="#08517F" transform="translate(91,95)"/>
<path d="M0 0 C8.21766784 -0.36254417 8.21766784 -0.36254417 11.5625 1.1875 C13 3 13 3 13.4375 5.5 C12.91783333 8.46952381 12.37965617 9.20491154 10 11 C7.51953125 11.29296875 7.51953125 11.29296875 4.8125 11.1875 C3.224375 11.125625 1.63625 11.06375 0 11 C0 7.37 0 3.74 0 0 Z " fill="#E9F3F7" transform="translate(107,137)"/>
<path d="M0 0 C6.27 0 12.54 0 19 0 C19.33 0.66 19.66 1.32 20 2 C14.06 2 8.12 2 2 2 C2 11.24 2 20.48 2 30 C3.32 30 4.64 30 6 30 C6 27.69 6 25.38 6 23 C6.66 23 7.32 23 8 23 C8 25.97 8 28.94 8 32 C5.36 32 2.72 32 0 32 C0 21.44 0 10.88 0 0 Z " fill="#235676" transform="translate(99,131)"/>
<path d="M0 0 C0 0.99 0 1.98 0 3 C-0.556875 3.24234375 -1.11375 3.4846875 -1.6875 3.734375 C-6.3061836 5.7628509 -10.82469692 7.88564033 -15.2734375 10.265625 C-17 11 -17 11 -20 11 C-20 10.34 -20 9.68 -20 9 C-21.65 9 -23.3 9 -25 9 C-21.5144663 6.02704479 -18.17538508 3.8830168 -14 2 C-13.35675781 1.70738281 -12.71351562 1.41476563 -12.05078125 1.11328125 C-7.63842197 -0.74411189 -4.77605151 -1.31341417 0 0 Z " fill="#46A9B3" transform="translate(133,63)"/>
<path d="M0 0 C0.625 1.875 0.625 1.875 1 4 C0.34 4.66 -0.32 5.32 -1 6 C-1.14507695 8.74485593 -1.18652423 11.38480543 -1.125 14.125 C-1.11597656 14.87910156 -1.10695313 15.63320312 -1.09765625 16.41015625 C-1.0740687 18.27357254 -1.03819719 20.13682593 -1 22 C-2.98 22 -4.96 22 -7 22 C-7.07347656 20.82630859 -7.07347656 20.82630859 -7.1484375 19.62890625 C-7.22320312 18.61699219 -7.29796875 17.60507813 -7.375 16.5625 C-7.44460937 15.55316406 -7.51421875 14.54382813 -7.5859375 13.50390625 C-7.72257812 12.67761719 -7.85921875 11.85132812 -8 11 C-8.66 10.67 -9.32 10.34 -10 10 C-7.17702535 5.46307646 -4.79118919 2.39559459 0 0 Z " fill="#F7FDFD" transform="translate(112,83)"/>
<path d="M0 0 C2.64 0 5.28 0 8 0 C8 1.65 8 3.3 8 5 C8.99 5 9.98 5 11 5 C11 3.35 11 1.7 11 0 C14.63 0 18.26 0 22 0 C22 1.98 22 3.96 22 6 C14.48751716 6.94450945 7.51248284 6.94450945 0 6 C0 4.02 0 2.04 0 0 Z " fill="#ABB5B6" transform="translate(168,170)"/>
<path d="M0 0 C0.89684329 2.47483338 1.07680043 3.74046753 0.3203125 6.296875 C-2.93050684 12.96849116 -6.95115031 17.66159283 -13 22 C-13.99 22.33 -14.98 22.66 -16 23 C-15.67 21.68 -15.34 20.36 -15 19 C-16.32 18.34 -17.64 17.68 -19 17 C-18.05125 16.7525 -17.1025 16.505 -16.125 16.25 C-12.95023986 15.34566709 -12.95023986 15.34566709 -11.875 13.125 C-11.58625 12.42375 -11.2975 11.7225 -11 11 C-9.68733482 9.64631404 -8.35432675 8.31200404 -7 7 C-6.34 6.01 -5.68 5.02 -5 4 C-4.01 5.485 -4.01 5.485 -3 7 C-2.01 4.69 -1.02 2.38 0 0 Z " fill="#3690A4" transform="translate(152,48)"/>
<path d="M0 0 C2.375 0.25 2.375 0.25 5 1 C6.1875 3 6.1875 3 7 5 C7.66 5.33 8.32 5.66 9 6 C9.625 8.5625 9.625 8.5625 10 11 C12.64 11.33 15.28 11.66 18 12 C18 12.33 18 12.66 18 13 C12.06 13 6.12 13 0 13 C-1.125 3.375 -1.125 3.375 0 0 Z " fill="#31839C" transform="translate(75,68)"/>
<path d="M0 0 C0.78552246 0.01047363 1.57104492 0.02094727 2.38037109 0.03173828 C3.23115234 0.03818359 4.08193359 0.04462891 4.95849609 0.05126953 C6.29267578 0.07640625 6.29267578 0.07640625 7.65380859 0.10205078 C8.99958984 0.11558594 8.99958984 0.11558594 10.37255859 0.12939453 C12.59157445 0.15300108 14.81005937 0.18592768 17.02880859 0.22705078 C17.02880859 0.55705078 17.02880859 0.88705078 17.02880859 1.22705078 C15.98080078 1.26443359 14.93279297 1.30181641 13.85302734 1.34033203 C12.47408554 1.40599593 11.09518089 1.47244313 9.71630859 1.53955078 C8.68086914 1.57338867 8.68086914 1.57338867 7.62451172 1.60791016 C3.73660918 1.7741567 3.73660918 1.7741567 0.32373047 3.45361328 C-1.38767734 5.79744177 -1.31658165 7.23058736 -1.26416016 10.11376953 C-1.25449219 11.0515625 -1.24482422 11.98935547 -1.23486328 12.95556641 C-1.20972656 13.93203125 -1.18458984 14.90849609 -1.15869141 15.91455078 C-1.14515625 16.90261719 -1.13162109 17.89068359 -1.11767578 18.90869141 C-1.08231344 21.34869309 -1.03296173 23.78759797 -0.97119141 26.22705078 C-0.17455078 26.21544922 0.62208984 26.20384766 1.44287109 26.19189453 C11.96729717 26.10227046 11.96729717 26.10227046 17.02880859 27.22705078 C17.02880859 27.55705078 17.02880859 27.88705078 17.02880859 28.22705078 C13.90388608 28.28496922 10.77910094 28.32061824 7.65380859 28.35205078 C6.76435547 28.36880859 5.87490234 28.38556641 4.95849609 28.40283203 C4.10771484 28.40927734 3.25693359 28.41572266 2.38037109 28.42236328 C1.2020874 28.43807373 1.2020874 28.43807373 0 28.45410156 C-1.97119141 28.22705078 -1.97119141 28.22705078 -3.97119141 26.22705078 C-4.22998047 23.82861328 -4.22998047 23.82861328 -4.23681641 20.85205078 C-4.23939453 19.78470703 -4.24197266 18.71736328 -4.24462891 17.61767578 C-4.23302734 15.93931641 -4.23302734 15.93931641 -4.22119141 14.22705078 C-4.22892578 13.10814453 -4.23666016 11.98923828 -4.24462891 10.83642578 C-4.24205078 9.76908203 -4.23947266 8.70173828 -4.23681641 7.60205078 C-4.23456055 6.61978516 -4.23230469 5.63751953 -4.22998047 4.62548828 C-3.90095299 1.57608645 -3.14345576 0.36207751 0 0 Z " fill="#114C71" transform="translate(46.97119140625,32.77294921875)"/>
<path d="M0 0 C0 3 0 3 -1.5 4.6875 C-1.995 5.120625 -2.49 5.55375 -3 6 C-1.74458443 8.51083114 -0.49936512 8.87125446 2 10 C-2.63473433 13.08982289 -6.42182449 13.47272674 -12 13 C-16.77598665 11.19552045 -19.80010288 8.65860566 -22 4 C-18.25806452 5.67741935 -18.25806452 5.67741935 -16.75 7.5625 C-13.86747041 9.93029216 -10.65844994 9.70012705 -7 10 C-8.32 7.36 -9.64 4.72 -11 2 C-5.555 1.01 -5.555 1.01 0 0 Z " fill="#155780" transform="translate(78,98)"/>
<path d="M0 0 C-0.99 0.36351563 -1.98 0.72703125 -3 1.1015625 C-10.50834519 3.93441619 -16.81530025 6.76941371 -23 12 C-23.99 12.495 -23.99 12.495 -25 13 C-25.99 12.34 -26.98 11.68 -28 11 C-26.483638 6.90582261 -23.60874739 4.30536233 -20 2 C-17.66169902 1.08623509 -15.46447019 0.54218344 -13 0 C-13 0.66 -13 1.32 -13 2 C-12.195625 1.5359375 -12.195625 1.5359375 -11.375 1.0625 C-7.38038215 -0.72456588 -4.17953643 -1.39317881 0 0 Z " fill="#1D6E8E" transform="translate(132,73)"/>
<path d="M0 0 C0.86625 0.4640625 0.86625 0.4640625 1.75 0.9375 C5.37094106 2.64738884 7.12331765 3.29222745 11 2 C14.92388711 10.33826012 15.0584497 19.05238395 13 28 C12.67 28 12.34 28 12 28 C11.97421875 27.2265625 11.9484375 26.453125 11.921875 25.65625 C11.52127263 18.29973375 10.88045565 11.88045565 5.47265625 6.47265625 C4.02989109 5.25565385 2.51788458 4.12191469 1 3 C0.34 2.34 -0.32 1.68 -1 1 C-0.67 0.67 -0.34 0.34 0 0 Z " fill="#0E587C" transform="translate(130,19)"/>
<path d="M0 0 C0.103125 0.639375 0.20625 1.27875 0.3125 1.9375 C0.539375 2.618125 0.76625 3.29875 1 4 C1.99 4.33 2.98 4.66 4 5 C4.43769726 8.0638808 4.60855877 10.16604909 2.734375 12.734375 C1.21356327 14.28471706 -0.24576489 15.71840855 -2 17 C-2.66 17 -3.32 17 -4 17 C-4.05423638 15.08364783 -4.09289963 13.16685075 -4.125 11.25 C-4.14820312 10.18265625 -4.17140625 9.1153125 -4.1953125 8.015625 C-4.00322356 5.04977172 -3.63578192 3.44795336 -2 1 C-1.34 0.67 -0.68 0.34 0 0 Z " fill="#4493A0" transform="translate(115,83)"/>
<path d="M0 0 C4.62 0 9.24 0 14 0 C14 1.98 14 3.96 14 6 C9.38 6 4.76 6 0 6 C0 4.02 0 2.04 0 0 Z " fill="#164F76" transform="translate(79,147)"/>
<path d="M0 0 C1.32 0.66 2.64 1.32 4 2 C2.41332422 5.90285767 -0.13350481 8.33520982 -3.125 11.25 C-4.03507812 12.14203125 -4.94515625 13.0340625 -5.8828125 13.953125 C-6.58148438 14.62859375 -7.28015625 15.3040625 -8 16 C-8.99 15.01 -9.98 14.02 -11 13 C-7.61227103 8.30840284 -4.21814817 3.9700218 0 0 Z " fill="#155981" transform="translate(103,83)"/>
<path d="M0 0 C1.49247873 4.47743619 1.01710722 8.86781233 0.9375 13.5546875 C0.99164444 16.53939986 1.29699823 19.1111021 2 22 C1.34 21.67 0.68 21.34 0 21 C0 20.01 0 19.02 0 18 C-0.66 18.33 -1.32 18.66 -2 19 C-2.65555119 21.52733235 -2.65555119 21.52733235 -3 24 C-3.66 23.67 -4.32 23.34 -5 23 C-5.4070911 14.58678402 -3.93933065 7.48472823 0 0 Z " fill="#165076" transform="translate(59,75)"/>
<path d="M0 0 C1.32 0 2.64 0 4 0 C3.35455571 3.48539917 1.89865603 6.02819057 0 9 C0.66 9.33 1.32 9.66 2 10 C1.01 10 0.02 10 -1 10 C-0.67 10.99 -0.34 11.98 0 13 C-3.07999946 16.67230705 -5.2482602 17.56802365 -10 18 C-8.8829081 14.98385187 -7.3874224 13.35491331 -4.9375 11.375 C-1.99175287 9.32880603 -1.99175287 9.32880603 -1 7 C-1.99 6.67 -2.98 6.34 -4 6 C-2.25 3 -2.25 3 0 0 Z " fill="#2F8AA1" transform="translate(122,93)"/>
<path d="M0 0 C0 3.63 0 7.26 0 11 C-2.75 11.75 -2.75 11.75 -6 12 C-8.203125 10.015625 -8.203125 10.015625 -10 8 C-8.71451591 6.66070495 -7.42141845 5.32871357 -6.125 4 C-5.04605469 2.88625 -5.04605469 2.88625 -3.9453125 1.75 C-2 0 -2 0 0 0 Z " fill="#23698A" transform="translate(104,95)"/>
<path d="M0 0 C5.94 0 11.88 0 18 0 C18 1.98 18 3.96 18 6 C10.08 6 2.16 6 -6 6 C-2.84685215 3.89790143 -2.13896919 3.7565239 1.44921875 3.8046875 C2.72055664 3.81435547 2.72055664 3.81435547 4.01757812 3.82421875 C5.33918945 3.84935547 5.33918945 3.84935547 6.6875 3.875 C8.02651367 3.88853516 8.02651367 3.88853516 9.39257812 3.90234375 C11.59532314 3.92590252 13.79752588 3.95879671 16 4 C16 3.34 16 2.68 16 2 C10.72 1.67 5.44 1.34 0 1 C0 0.67 0 0.34 0 0 Z " fill="#164B6E" transform="translate(57,157)"/>
<path d="M0 0 C0.33 0 0.66 0 1 0 C1.33 5.94 1.66 11.88 2 18 C3.98 17.67 5.96 17.34 8 17 C9.32 17.66 10.64 18.32 12 19 C12 15.7 12 12.4 12 9 C12.33 9 12.66 9 13 9 C13 13.62 13 18.24 13 23 C10.525 22.01 10.525 22.01 8 21 C5.13132471 21.34150896 2.74431224 22.08522925 0 23 C0 15.41 0 7.82 0 0 Z " fill="#BAD5E0" transform="translate(94,10)"/>
<path d="M0 0 C1.39456867 0.00574201 2.78910972 0.01875397 4.18359375 0.03515625 C6.63796875 0.05578125 9.09234375 0.07640625 11.62109375 0.09765625 C11.62109375 5.37765625 11.62109375 10.65765625 11.62109375 16.09765625 C11.29109375 16.09765625 10.96109375 16.09765625 10.62109375 16.09765625 C10.62109375 11.14765625 10.62109375 6.19765625 10.62109375 1.09765625 C4.57474197 1.864948 4.57474197 1.864948 -1.37890625 3.09765625 C-1.70890625 3.75765625 -2.03890625 4.41765625 -2.37890625 5.09765625 C-1.71890625 5.42765625 -1.05890625 5.75765625 -0.37890625 6.09765625 C-1.03890625 6.75765625 -1.69890625 7.41765625 -2.37890625 8.09765625 C-2.68529215 10.83200587 -2.89023985 13.48045446 -3.00390625 16.22265625 C-3.04257813 16.97675781 -3.08125 17.73085938 -3.12109375 18.5078125 C-3.21541656 20.37068809 -3.29825287 22.2341388 -3.37890625 24.09765625 C-3.70890625 24.09765625 -4.03890625 24.09765625 -4.37890625 24.09765625 C-4.40777861 20.28517199 -4.42566117 16.47271555 -4.44140625 12.66015625 C-4.44978516 11.57154297 -4.45816406 10.48292969 -4.46679688 9.36132812 C-4.47001953 8.32685547 -4.47324219 7.29238281 -4.4765625 6.2265625 C-4.48179932 5.2682251 -4.48703613 4.3098877 -4.49243164 3.32250977 C-4.30692532 -0.31301526 -3.76156034 0.10871562 0 0 Z " fill="#074A74" transform="translate(68.37890625,7.90234375)"/>
<path d="M0 0 C1.51400391 0.01740234 1.51400391 0.01740234 3.05859375 0.03515625 C4.07050781 0.04417969 5.08242187 0.05320313 6.125 0.0625 C7.29869141 0.07990234 7.29869141 0.07990234 8.49609375 0.09765625 C8.87828142 1.75380282 9.21004477 3.42222649 9.49609375 5.09765625 C8.49609375 6.09765625 8.49609375 6.09765625 5.9921875 6.1953125 C4.47818359 6.17791016 4.47818359 6.17791016 2.93359375 6.16015625 C1.92167969 6.15113281 0.90976563 6.14210937 -0.1328125 6.1328125 C-0.91527344 6.12121094 -1.69773437 6.10960937 -2.50390625 6.09765625 C-2.88609392 4.44150968 -3.21785727 2.77308601 -3.50390625 1.09765625 C-2.50390625 0.09765625 -2.50390625 0.09765625 0 0 Z " fill="#BAC3C3" transform="translate(123.50390625,169.90234375)"/>
<path d="M0 0 C5.28 0 10.56 0 16 0 C16 1.65 16 3.3 16 5 C10.72 5 5.44 5 0 5 C1 3 1 3 4 2 C2.68 1.34 1.36 0.68 0 0 Z " fill="#074873" transform="translate(140,144)"/>
<path d="M0 0 C4.62 0 9.24 0 14 0 C14 1.65 14 3.3 14 5 C9.05 5 4.1 5 -1 5 C-0.67 4.34 -0.34 3.68 0 3 C0.66 3 1.32 3 2 3 C2 2.34 2 1.68 2 1 C1.34 0.67 0.68 0.34 0 0 Z " fill="#064873" transform="translate(173,144)"/>
<path d="M0 0 C1.134375 0.020625 2.26875 0.04125 3.4375 0.0625 C3.7675 1.7125 4.0975 3.3625 4.4375 5.0625 C4.4375 3.4125 4.4375 1.7625 4.4375 0.0625 C5.7575 0.7225 7.0775 1.3825 8.4375 2.0625 C7.875 4 7.875 4 6.4375 6.0625 C2.57840895 6.97464879 0.22146692 7.32382231 -3.5625 6.0625 C-3.94468767 4.40635343 -4.27645102 2.73792976 -4.5625 1.0625 C-3.5625 0.0625 -3.5625 0.0625 0 0 Z " fill="#A7AFB0" transform="translate(92.5625,169.9375)"/>
<path d="M0 0 C0.66 0 1.32 0 2 0 C3.80628351 5.09043535 2.04224843 9.26127636 0 14 C-1.6875 16.5625 -1.6875 16.5625 -3 18 C-3 17.34 -3 16.68 -3 16 C-3.99 15.67 -4.98 15.34 -6 15 C-5.73445313 14.41992188 -5.46890625 13.83984375 -5.1953125 13.2421875 C-3.22438666 8.88313255 -1.40950748 4.58089932 0 0 Z " fill="#4CAAB2" transform="translate(129,77)"/>
<path d="M0 0 C0.33 0 0.66 0 1 0 C1 3.63 1 7.26 1 11 C2.11375 10.0925 3.2275 9.185 4.375 8.25 C5.31472656 7.48429687 5.31472656 7.48429687 6.2734375 6.703125 C8.08312318 4.91800519 9.00117455 3.32050356 10 1 C10 1.66 10 2.32 10 3 C10.99 3.33 11.98 3.66 13 4 C5.88610478 12.6309795 5.88610478 12.6309795 1 15 C-0.44207941 12.11584117 -0.09394887 9.58278472 -0.0625 6.375 C-0.05347656 5.18648438 -0.04445313 3.99796875 -0.03515625 2.7734375 C-0.02355469 1.85820313 -0.01195313 0.94296875 0 0 Z " fill="#CCEAEF" transform="translate(110,89)"/>
<path d="M0 0 C0.33 0 0.66 0 1 0 C1 2.31 1 4.62 1 7 C2.32 7.33 3.64 7.66 5 8 C2.43398585 9.89744967 -0.11230536 11.62901974 -3 13 C-5.625 12.5 -5.625 12.5 -8 11 C-9.6396875 10.195625 -9.6396875 10.195625 -11.3125 9.375 C-12.199375 8.92125 -13.08625 8.4675 -14 8 C-13.01 7.34 -12.02 6.68 -11 6 C-9.32110979 6.63525576 -7.65583225 7.30686092 -6 8 C-2.79129767 8.16757757 -2.79129767 8.16757757 0 8 C0 5.36 0 2.72 0 0 Z " fill="#D4E9F0" transform="translate(104,98)"/>
<path d="M0 0 C3.96 0 7.92 0 12 0 C9.80682128 4.38635744 8.08649371 5.51256905 4 8 C0 2.25 0 2.25 0 0 Z " fill="#1F6687" transform="translate(77,85)"/>
<path d="M0 0 C2.64 0 5.28 0 8 0 C6.68 0.33 5.36 0.66 4 1 C4 2.32 4 3.64 4 5 C5.65 5 7.3 5 9 5 C9.33 3.35 9.66 1.7 10 0 C10.99 0.33 11.98 0.66 13 1 C13.33 2.65 13.66 4.3 14 6 C12.86111328 5.98259766 12.86111328 5.98259766 11.69921875 5.96484375 C10.70535156 5.95582031 9.71148437 5.94679687 8.6875 5.9375 C7.70136719 5.92589844 6.71523438 5.91429687 5.69921875 5.90234375 C2.90036151 5.87670138 2.90036151 5.87670138 0 7 C0 4.69 0 2.38 0 0 Z " fill="#AAB4B3" transform="translate(32,170)"/>
<path d="M0 0 C0 0.99 0 1.98 0 3 C-6 7 -6 7 -9 7 C-9 6.34 -9 5.68 -9 5 C-10.65 5 -12.3 5 -14 5 C-9.15144747 0.82485754 -6.3124233 -0.17534509 0 0 Z " fill="#3A9AAC" transform="translate(122,67)"/>
<path d="M0 0 C2 0.875 2 0.875 3.125 3.375 C3.41375 4.2 3.7025 5.025 4 5.875 C4.66 6.205 5.32 6.535 6 6.875 C6 9.185 6 11.495 6 13.875 C4.68 13.875 3.36 13.875 2 13.875 C1.83723958 11.85677083 1.67447917 9.83854167 1.51171875 7.8203125 C1.12606964 5.47980784 1.12606964 5.47980784 -2 3.875 C-2 3.215 -2 2.555 -2 1.875 C-2.66 1.545 -3.32 1.215 -4 0.875 C-2 -0.125 -2 -0.125 0 0 Z " fill="#2C8BA2" transform="translate(98,55.125)"/>
<path d="M0 0 C2.58656673 0.22288501 5.15952778 0.41314385 7.75 0.5625 C8.44738281 0.60568359 9.14476562 0.64886719 9.86328125 0.69335938 C11.57531922 0.79889596 13.28763561 0.8998991 15 1 C15 1.66 15 2.32 15 3 C8.07 3 1.14 3 -6 3 C-6 2.01 -6 1.02 -6 0 C-3.41017299 -1.29491351 -2.78462772 -0.70537755 0 0 Z " fill="#014D7F" transform="translate(173,158)"/>
<path d="M0 0 C0.66 0 1.32 0 2 0 C1.87952582 5.02705917 1.75412763 8.09872551 -1.5625 12.0625 C-2.366875 12.701875 -3.17125 13.34125 -4 14 C-7 10.375 -7 10.375 -7 7 C-6.34 6.34 -5.68 5.68 -5 5 C-3.35 5.99 -1.7 6.98 0 8 C-0.2784375 6.2984375 -0.2784375 6.2984375 -0.5625 4.5625 C-0.706875 3.386875 -0.85125 2.21125 -1 1 C-0.67 0.67 -0.34 0.34 0 0 Z " fill="#105079" transform="translate(126,139)"/>
<path d="M0 0 C6.01175995 0.42941143 10.95170617 1.56336805 16 5 C16.99 6.485 16.99 6.485 18 8 C10.63157895 8 10.63157895 8 7 5.125 C4.69749942 3.31963023 2.43897124 1.62598083 0 0 Z " fill="#51ABB6" transform="translate(125,8)"/>
<path d="M0 0 C0 1.98 0 3.96 0 6 C-3.3 6.33 -6.6 6.66 -10 7 C-9.67 6.01 -9.34 5.02 -9 4 C-8.01 4 -7.02 4 -6 4 C-6 3.34 -6 2.68 -6 2 C-6.99 1.67 -7.98 1.34 -9 1 C-5.8035914 -0.06546953 -3.34252724 -0.07427838 0 0 Z " fill="#CCD4D3" transform="translate(190,170)"/>
<path d="M0 0 C0 7.61538462 0 7.61538462 -1 10 C-3.4375 11.3125 -3.4375 11.3125 -6 12 C-6.66 11.67 -7.32 11.34 -8 11 C-7.43040847 7.37386801 -6.07625466 5.74482259 -3.4375 3.25 C-2.79683594 2.63640625 -2.15617187 2.0228125 -1.49609375 1.390625 C-1.00238281 0.93171875 -0.50867188 0.4728125 0 0 Z " fill="#226E8C" transform="translate(98,81)"/>
<path d="M0 0 C0.88336837 2.4667645 1.1312406 3.63859372 0.22265625 6.140625 C-0.16019531 6.83671875 -0.54304687 7.5328125 -0.9375 8.25 C-1.31777344 8.95640625 -1.69804687 9.6628125 -2.08984375 10.390625 C-2.39019531 10.92171875 -2.69054687 11.4528125 -3 12 C-5.31 11.67 -7.62 11.34 -10 11 C-8.68 8.69 -7.36 6.38 -6 4 C-5.01 4.99 -4.02 5.98 -3 7 C-2.01 4.69 -1.02 2.38 0 0 Z " fill="#3A97A8" transform="translate(152,48)"/>
<path d="M0 0 C7.4659249 -0.36717663 7.4659249 -0.36717663 10 1.375 C11 3 11 3 11 5 C9.35 5.33 7.7 5.66 6 6 C5.67 5.34 5.34 4.68 5 4 C3.35 4.66 1.7 5.32 0 6 C0 4.02 0 2.04 0 0 Z " fill="#A7B1B1" transform="translate(77,170)"/>
<path d="M0 0 C1.65 0 3.3 0 5 0 C5.33 2.31 5.66 4.62 6 7 C2 7 2 7 -1 5 C-0.67 3.35 -0.34 1.7 0 0 Z " fill="#B9C1C1" transform="translate(61,170)"/>
<path d="M0 0 C2.4377963 -0.05397335 4.87439685 -0.09365616 7.3125 -0.125 C8.00279297 -0.14175781 8.69308594 -0.15851563 9.40429688 -0.17578125 C13.17135396 -0.21217794 14.78431704 -0.14378864 18 2 C14.535 4.97 14.535 4.97 11 8 C10.34 7.01 9.68 6.02 9 5 C10.32 3.68 11.64 2.36 13 1 C6.565 1.495 6.565 1.495 0 2 C0 1.34 0 0.68 0 0 Z " fill="#B9D7E1" transform="translate(76,84)"/>
<path d="M0 0 C2.64 0 5.28 0 8 0 C8 2.31 8 4.62 8 7 C7.67 7 7.34 7 7 7 C7 5.02 7 3.04 7 1 C5.35 1 3.7 1 2 1 C2 2.65 2 4.3 2 6 C2.66 6 3.32 6 4 6 C4 6.99 4 7.98 4 9 C0.04 8.67 -3.92 8.34 -8 8 C-8 7.67 -8 7.34 -8 7 C-5.36 7 -2.72 7 0 7 C0 4.69 0 2.38 0 0 Z " fill="#5AACB4" transform="translate(96,47)"/>
<path d="M0 0 C0.33 0 0.66 0 1 0 C1 2.97 1 5.94 1 9 C1.66 9.33 2.32 9.66 3 10 C1.02 12.64 -0.96 15.28 -3 18 C-4.32 17.34 -5.64 16.68 -7 16 C-6.195625 15.21625 -5.39125 14.4325 -4.5625 13.625 C-1.3845093 10.36949733 -0.87628492 8.76284922 -0.4375 4.375 C-0.35371094 3.55773438 -0.26992187 2.74046875 -0.18359375 1.8984375 C-0.12300781 1.27195313 -0.06242188 0.64546875 0 0 Z " fill="#D3F5F6" transform="translate(137,41)"/>
<path d="M0 0 C0.66 0 1.32 0 2 0 C2 0.66 2 1.32 2 2 C3.32 1.67 4.64 1.34 6 1 C6.66 2.98 7.32 4.96 8 7 C5.36 7 2.72 7 0 7 C-1.125 2.25 -1.125 2.25 0 0 Z " fill="#C1CACC" transform="translate(159,169)"/>
<path d="M0 0 C0 0.66 0 1.32 0 2 C-1.11375 2.4125 -2.2275 2.825 -3.375 3.25 C-5.99320695 4.35546516 -6.83493089 4.74880787 -8.4375 7.1875 C-8.623125 7.785625 -8.80875 8.38375 -9 9 C-9.66 7.68 -10.32 6.36 -11 5 C-12.65 5 -14.3 5 -16 5 C-13.13879225 3.09252817 -10.64745007 1.99646294 -7.4375 0.8125 C-6.46683594 0.44769531 -5.49617187 0.08289063 -4.49609375 -0.29296875 C-2 -1 -2 -1 0 0 Z " fill="#DDF6F9" transform="translate(137,72)"/>
<path d="M0 0 C2.14824534 0.96300653 3.73766794 1.69287953 5.28125 3.5 C7.62837831 5.54840289 9.63393622 5.72048436 12.6875 6.1875 C13.68136719 6.34605469 14.67523438 6.50460938 15.69921875 6.66796875 C16.83810547 6.83232422 16.83810547 6.83232422 18 7 C17.67 7.66 17.34 8.32 17 9 C10.85838443 9.50135637 7.89714909 8.48450993 3 5 C1.0625 2.25 1.0625 2.25 0 0 Z " fill="#2B5D7E" transform="translate(56,102)"/>
<path d="M0 0 C1.98 0.66 3.96 1.32 6 2 C6 2.66 6 3.32 6 4 C9.63 4 13.26 4 17 4 C17 4.33 17 4.66 17 5 C11.06 5 5.12 5 -1 5 C-0.67 3.35 -0.34 1.7 0 0 Z " fill="#1F738F" transform="translate(76,76)"/>
<path d="M0 0 C0.90922753 2.47819942 1.18726604 3.57208067 0.109375 6.03515625 C-0.33921875 6.70417969 -0.7878125 7.37320313 -1.25 8.0625 C-1.90742187 9.06990234 -1.90742187 9.06990234 -2.578125 10.09765625 C-3.931818 11.90877848 -5.35818829 13.4499366 -7 15 C-7.33 14.01 -7.66 13.02 -8 12 C-7.2884375 11.38125 -7.2884375 11.38125 -6.5625 10.75 C-4.82060046 8.79907252 -4.58221635 7.49521294 -4 5 C-3.34 4.67 -2.68 4.34 -2 4 C-0.86649466 1.98330173 -0.86649466 1.98330173 0 0 Z " fill="#35879C" transform="translate(89,36)"/>
<path d="M0 0 C4.62 0 9.24 0 14 0 C14 0.99 14 1.98 14 3 C4.58997722 3.18451025 4.58997722 3.18451025 0 2 C0 1.34 0 0.68 0 0 Z " fill="#034D7F" transform="translate(174,133)"/>
<path d="M0 0 C2.0625 0.4375 2.0625 0.4375 4 1 C2.44499019 4.81684226 -0.03595495 7.19195732 -3 10 C-3 6.28781401 -2.76691023 2.76691023 0 0 Z " fill="#44A0B0" transform="translate(125,96)"/>
<path d="M0 0 C1.5 1.3125 1.5 1.3125 3 3 C3 3.99 3 4.98 3 6 C3.99 6 4.98 6 6 6 C6.33 5.01 6.66 4.02 7 3 C8.32 3.33 9.64 3.66 11 4 C10.67 4.99 10.34 5.98 10 7 C7.69 7.33 5.38 7.66 3 8 C0 3.375 0 3.375 0 0 Z " fill="#154E73" transform="translate(67,89)"/>
<path d="M0 0 C0.66 0.33 1.32 0.66 2 1 C1.32829194 4.8063457 0.27253436 8.35206816 -1 12 C-2.32 11.67 -3.64 11.34 -5 11 C-4.54917531 9.53932801 -4.08906463 8.08151968 -3.625 6.625 C-3.36976562 5.81289062 -3.11453125 5.00078125 -2.8515625 4.1640625 C-2 2 -2 2 0 0 Z " fill="#45B3BA" transform="translate(131,86)"/>
<path d="M0 0 C2.97 0 5.94 0 9 0 C9.95904856 3.83619425 9.91892116 5.32431536 9 9 C11.31 9 13.62 9 16 9 C16 9.33 16 9.66 16 10 C13.36 10 10.72 10 8 10 C8 7.36 8 4.72 8 2 C5.36 2 2.72 2 0 2 C0 1.34 0 0.68 0 0 Z " fill="#C4ECEE" transform="translate(96,45)"/>
<path d="M0 0 C1.2065625 0.0309375 1.2065625 0.0309375 2.4375 0.0625 C3.68296405 2.55342811 3.2142578 3.47330733 2.4375 6.0625 C0.7875 6.0625 -0.8625 6.0625 -2.5625 6.0625 C-2.94468767 4.40635343 -3.27645102 2.73792976 -3.5625 1.0625 C-2.5625 0.0625 -2.5625 0.0625 0 0 Z " fill="#C9CFCF" transform="translate(123.5625,169.9375)"/>
<path d="M0 0 C1.11375 0.1546875 1.11375 0.1546875 2.25 0.3125 C1.85196439 3.19825819 1.45990931 4.13439513 -0.8125 6.0625 C-1.451875 6.475 -2.09125 6.8875 -2.75 7.3125 C-4.07 6.6525 -5.39 5.9925 -6.75 5.3125 C-3.42692308 0.38942308 -3.42692308 0.38942308 0 0 Z " fill="#2D8FA5" transform="translate(110.75,71.6875)"/>
<path d="M0 0 C1.65 0 3.3 0 5 0 C5.38218767 1.65614657 5.71395102 3.32457024 6 5 C5 6 5 6 2.4375 6.0625 C1.2309375 6.0315625 1.2309375 6.0315625 0 6 C0 4.02 0 2.04 0 0 Z " fill="#B7C0C0" transform="translate(25,170)"/>
<path d="M0 0 C3.01574271 1.03991128 3.97991051 1.96914829 5.75 4.6875 C7.13220349 8.35033925 7.23295137 11.11747717 7 15 C6.01 15.495 6.01 15.495 5 16 C4.89042969 15.24074219 4.78085937 14.48148438 4.66796875 13.69921875 C4.43013672 12.20841797 4.43013672 12.20841797 4.1875 10.6875 C3.96126953 9.20830078 3.96126953 9.20830078 3.73046875 7.69921875 C2.95244504 4.82427551 2.16613446 3.92874986 0 2 C0 1.34 0 0.68 0 0 Z " fill="#27597D" transform="translate(37,135)"/>
<path d="M0 0 C5.95703125 -0.390625 5.95703125 -0.390625 8 0 C8.99 1.32 9.98 2.64 11 4 C7.7 4 4.4 4 1 4 C0.67 2.68 0.34 1.36 0 0 Z " fill="#054875" transform="translate(17,133)"/>
<path d="M0 0 C-5.28 1.98 -10.56 3.96 -16 6 C-16.33 4.68 -16.66 3.36 -17 2 C-15.68 1.34 -14.36 0.68 -13 0 C-13 0.66 -13 1.32 -13 2 C-12.46375 1.690625 -11.9275 1.38125 -11.375 1.0625 C-7.38038215 -0.72456588 -4.17953643 -1.39317881 0 0 Z " fill="#2D7790" transform="translate(132,73)"/>
<path d="M0 0 C2.31 0 4.62 0 7 0 C6.01 0.495 6.01 0.495 5 1 C5 2.65 5 4.3 5 6 C3.35 6 1.7 6 0 6 C-1.24546405 3.50907189 -0.7767578 2.58919267 0 0 Z " fill="#B6BFBE" transform="translate(102,170)"/>
<path d="M0 0 C1.32 0.33 2.64 0.66 4 1 C2.48328036 5.55015893 -1.16891053 7.50057264 -5 10 C-5 9.01 -5 8.02 -5 7 C-4.01 6.67 -3.02 6.34 -2 6 C-0.77479736 2.99152582 -0.77479736 2.99152582 0 0 Z " fill="#1D7392" transform="translate(117,99)"/>
<path d="M0 0 C0.66 0 1.32 0 2 0 C2.66 2.97 3.32 5.94 4 9 C2.02 9.99 2.02 9.99 0 11 C0 7.37 0 3.74 0 0 Z " fill="#328097" transform="translate(111,89)"/>
<path d="M0 0 C1.32 0.66 2.64 1.32 4 2 C3.34 3.32 2.68 4.64 2 6 C-1 6 -1 6 -3 5 C-3.33 5.66 -3.66 6.32 -4 7 C-4 4 -4 4 -2 1.8125 C-1.34 1.214375 -0.68 0.61625 0 0 Z " fill="#176388" transform="translate(103,83)"/>
<path d="M0 0 C1.28385175 3.85155526 0.29190137 5.19606819 -1 9 C-1.4416175 11.66410556 -1.72188897 14.31159334 -2 17 C-4.3773161 14.6226839 -4.67028521 13.29714793 -5 10 C-4.34 9.34 -3.68 8.68 -3 8 C-2.30643577 5.67451993 -1.63850788 3.34119555 -1 1 C-0.67 0.67 -0.34 0.34 0 0 Z " fill="#0E4B72" transform="translate(73,60)"/>
<path d="M0 0 C0.33 1.32 0.66 2.64 1 4 C1.99 4 2.98 4 4 4 C4 3.34 4 2.68 4 2 C6.31 2.66 8.62 3.32 11 4 C11 4.66 11 5.32 11 6 C10.0925 5.79375 9.185 5.5875 8.25 5.375 C4.78770325 4.97550422 3.88924409 5.30630519 1 7 C0.01 7 -0.98 7 -2 7 C-1.34 4.69 -0.68 2.38 0 0 Z " fill="#5EB1B4" transform="translate(94,35)"/>
<path d="M0 0 C1.32 0 2.64 0 4 0 C4.33 1.98 4.66 3.96 5 6 C1.25 7.125 1.25 7.125 -1 6 C-0.67 4.02 -0.34 2.04 0 0 Z " fill="#AAB4B5" transform="translate(112,170)"/>
<path d="M0 0 C0.66 0.33 1.32 0.66 2 1 C1.25 2.9375 1.25 2.9375 0 5 C-2.0625 5.625 -2.0625 5.625 -4 6 C-4.33 6.66 -4.66 7.32 -5 8 C-5 7.34 -5 6.68 -5 6 C-6.98 6.33 -8.96 6.66 -11 7 C-10.01 6.34 -9.02 5.68 -8 5 C-7.34902344 4.56300781 -6.69804688 4.12601562 -6.02734375 3.67578125 C-5.33769531 3.22589844 -4.64804688 2.77601562 -3.9375 2.3125 C-2.89916016 1.62607422 -2.89916016 1.62607422 -1.83984375 0.92578125 C-1.23269531 0.62027344 -0.62554687 0.31476563 0 0 Z " fill="#DBEDF3" transform="translate(88,103)"/>
<path d="M0 0 C2.475 0.99 2.475 0.99 5 2 C5 2.66 5 3.32 5 4 C5.66 4.33 6.32 4.66 7 5 C4.75 5.75 4.75 5.75 2 6 C-0.3125 4.0625 -0.3125 4.0625 -2 2 C-1.34 1.34 -0.68 0.68 0 0 Z " fill="#185779" transform="translate(96,101)"/>
<path d="M0 0 C5.445 1.485 5.445 1.485 11 3 C11 3.33 11 3.66 11 4 C8.01503209 4.94396421 5.12820109 5.75232831 2 6 C-0.5625 4.125 -0.5625 4.125 -2 2 C-1.34 1.34 -0.68 0.68 0 0 Z " fill="#054A78" transform="translate(61,98)"/>
<path d="M0 0 C0.33 0.66 0.66 1.32 1 2 C1.99 2.33 2.98 2.66 4 3 C5.6875 6.0625 5.6875 6.0625 7 9 C6.34 9 5.68 9 5 9 C5 9.99 5 10.98 5 12 C2.14764259 10.57382129 1.9951629 8.98548869 1 6 C0.62406934 4.0075675 0.28020455 2.0081326 0 0 Z " fill="#D7EBF1" transform="translate(74,84)"/>
<path d="M0 0 C0.66 0 1.32 0 2 0 C2.99 2.64 3.98 5.28 5 8 C3.68 8.33 2.36 8.66 1 9 C-1.09230769 4.56923077 -1.09230769 4.56923077 -0.625 1.6875 C-0.41875 1.130625 -0.2125 0.57375 0 0 Z " fill="#4F94A2" transform="translate(82,63)"/>
<path d="M0 0 C0.66 0.33 1.32 0.66 2 1 C-2.625 5.875 -2.625 5.875 -6 7 C-6.33 7.66 -6.66 8.32 -7 9 C-8.32 8.34 -9.64 7.68 -11 7 C-9.21475351 5.80286983 -7.4215972 4.61752721 -5.625 3.4375 C-4.62726563 2.77621094 -3.62953125 2.11492187 -2.6015625 1.43359375 C-1.74304688 0.96050781 -0.88453125 0.48742187 0 0 Z " fill="#256786" transform="translate(115,101)"/>
<path d="M0 0 C0.6875 1.6875 0.6875 1.6875 1 4 C-0.25 6.75 -0.25 6.75 -2 9 C-2.99 9 -3.98 9 -5 9 C-4.5206753 4.68607774 -3.2542015 2.83430453 0 0 Z " fill="#5DABB0" transform="translate(123,53)"/>
<path d="M0 0 C0.99 0 1.98 0 3 0 C2.67 3.3 2.34 6.6 2 10 C0.68 9.67 -0.64 9.34 -2 9 C-1.34 6.03 -0.68 3.06 0 0 Z " fill="#D8F5F6" transform="translate(91,33)"/>
<path d="M0 0 C0.66 0 1.32 0 2 0 C2 2.97 2 5.94 2 9 C-0.31 9 -2.62 9 -5 9 C-4.67 8.34 -4.34 7.68 -4 7 C-2.68 7 -1.36 7 0 7 C0 4.69 0 2.38 0 0 Z " fill="#194E6F" transform="translate(105,154)"/>
<path d="M0 0 C0.33 0.66 0.66 1.32 1 2 C0.06421005 4.35981813 -0.93347808 6.69631264 -2 9 C-2.33 8.34 -2.66 7.68 -3 7 C-3.99 6.67 -4.98 6.34 -6 6 C-2.25 1.125 -2.25 1.125 0 0 Z " fill="#3C9DAB" transform="translate(129,86)"/>
<path d="M0 0 C1.32 0.33 2.64 0.66 4 1 C4 1.66 4 2.32 4 3 C3.01 3.66 2.02 4.32 1 5 C1 5.99 1 6.98 1 8 C-0.98 7.01 -2.96 6.02 -5 5 C-4.360625 4.731875 -3.72125 4.46375 -3.0625 4.1875 C-0.66868314 3.11332248 -0.66868314 3.11332248 0 0 Z " fill="#1A5277" transform="translate(33,133)"/>
<path d="M0 0 C0 0.66 0 1.32 0 2 C-2.31 3.32 -4.62 4.64 -7 6 C-6.67 4.68 -6.34 3.36 -6 2 C-7.32 1.34 -8.64 0.68 -10 0 C-6.30458414 -0.95024979 -3.69541586 -0.95024979 0 0 Z " fill="#35889C" transform="translate(143,65)"/>
<path d="M0 0 C0.33 0 0.66 0 1 0 C1 4.62 1 9.24 1 14 C-1.86274764 11.13725236 -1.9615008 7.89611889 -2 4 C-1.0625 1.5 -1.0625 1.5 0 0 Z " fill="#4BA8B1" transform="translate(90,24)"/>
<path d="M0 0 C1.32 0.33 2.64 0.66 4 1 C3.34 1.66 2.68 2.32 2 3 C0.35 3 -1.3 3 -3 3 C-3 6.96 -3 10.92 -3 15 C-3.33 15 -3.66 15 -4 15 C-4 10.71 -4 6.42 -4 2 C-2.68 2 -1.36 2 0 2 C0 1.34 0 0.68 0 0 Z " fill="#155279" transform="translate(110,133)"/>
<path d="M0 0 C2.97 0 5.94 0 9 0 C9 0.33 9 0.66 9 1 C7.02 1.33 5.04 1.66 3 2 C3 2.99 3 3.98 3 5 C4.32 5.33 5.64 5.66 7 6 C6.01 6.66 5.02 7.32 4 8 C0 2.25 0 2.25 0 0 Z " fill="#205A77" transform="translate(77,85)"/>
<path d="M0 0 C1.06671952 3.20015856 0.94845472 4.88544294 0.5625 8.1875 C0.46066406 9.08855469 0.35882813 9.98960938 0.25390625 10.91796875 C0.12822266 11.94857422 0.12822266 11.94857422 0 13 C-0.66 12.01 -1.32 11.02 -2 10 C-2.99 10.495 -2.99 10.495 -4 11 C-3.52269162 9.5410574 -3.04308958 8.08286504 -2.5625 6.625 C-2.29566406 5.81289062 -2.02882812 5.00078125 -1.75390625 4.1640625 C-1 2 -1 2 0 0 Z " fill="#3A6077" transform="translate(59,75)"/>
<path d="M0 0 C1.485 0.99 1.485 0.99 3 2 C3.33 1.34 3.66 0.68 4 0 C4.66 0 5.32 0 6 0 C6 1.98 6 3.96 6 6 C4.68 5.34 3.36 4.68 2 4 C1.34 4.66 0.68 5.32 0 6 C0 4.02 0 2.04 0 0 Z " fill="#95A2A3" transform="translate(134,170)"/>
<path d="M0 0 C0.66 0.33 1.32 0.66 2 1 C0.63016497 4.16115776 0.0109362 4.9927092 -3 7 C-3.66 6.01 -4.32 5.02 -5 4 C-3.35 2.68 -1.7 1.36 0 0 Z " fill="#227B9A" transform="translate(101,81)"/>
<path d="M0 0 C2.18975773 3.28463659 2.99806563 6.20696275 4 10 C1 9 1 9 -0.25 7.25 C-1.17574966 4.47275102 -0.77341204 2.78428335 0 0 Z " fill="#D8F4F7" transform="translate(80,64)"/>
<path d="M0 0 C0.33 0.66 0.66 1.32 1 2 C1.66 2 2.32 2 3 2 C3 3.65 3 5.3 3 7 C4.32 7.33 5.64 7.66 7 8 C4.69 8 2.38 8 0 8 C0 5.36 0 2.72 0 0 Z " fill="#166282" transform="translate(97,62)"/>
<path d="M0 0 C0 2.64 0 5.28 0 8 C-0.66 7.01 -1.32 6.02 -2 5 C-3.65 5.33 -5.3 5.66 -7 6 C-5.52522876 2.59668175 -4.14385429 0 0 0 Z " fill="#CFE9ED" transform="translate(117,79)"/>
<path d="M0 0 C0.99 0 1.98 0 3 0 C3 1.98 3 3.96 3 6 C2.01 6 1.02 6 0 6 C-0.38218767 4.34385343 -0.71395102 2.67542976 -1 1 C-0.67 0.67 -0.34 0.34 0 0 Z " fill="#BDC8C8" transform="translate(89,170)"/>
<path d="M0 0 C0.66 0 1.32 0 2 0 C2.33 1.98 2.66 3.96 3 6 C1.35 6 -0.3 6 -2 6 C-2 3 -2 3 0 0 Z " fill="#065281" transform="translate(103,111)"/>
<path d="M0 0 C0.33 0.66 0.66 1.32 1 2 C-3 8.57142857 -3 8.57142857 -7 10 C-4.75421558 6.59260295 -2.48862878 3.23521742 0 0 Z " fill="#DCF6F7" transform="translate(131,95)"/>
<path d="M0 0 C0.99 0.99 1.98 1.98 3 3 C1.1875 4.5625 1.1875 4.5625 -1 6 C-1.99 5.67 -2.98 5.34 -4 5 C-4 4.34 -4 3.68 -4 3 C-2 1.375 -2 1.375 0 0 Z " fill="#186C91" transform="translate(94,87)"/>
<path d="M0 0 C0.12375 0.639375 0.2475 1.27875 0.375 1.9375 C0.684375 2.9584375 0.684375 2.9584375 1 4 C1.66 4.33 2.32 4.66 3 5 C-1.75 6.125 -1.75 6.125 -4 5 C-2.25 1.125 -2.25 1.125 0 0 Z " fill="#539FAA" transform="translate(115,83)"/>
<path d="M0 0 C1.98 0 3.96 0 6 0 C6 2.97 6 5.94 6 9 C5.01 9.495 5.01 9.495 4 10 C4.0825 8.906875 4.165 7.81375 4.25 6.6875 C4.41103961 2.96557142 4.41103961 2.96557142 2 1.0625 C1.34 0.711875 0.68 0.36125 0 0 Z " fill="#56A8AA" transform="translate(131,41)"/>
<path d="M0 0 C0.66 0 1.32 0 2 0 C1.88637738 1.4800841 1.75877092 2.95910074 1.625 4.4375 C1.52058594 5.67306641 1.52058594 5.67306641 1.4140625 6.93359375 C1.27742188 7.61550781 1.14078125 8.29742187 1 9 C0.01 9.495 0.01 9.495 -1 10 C-1.02689216 8.52093108 -1.04634621 7.04172517 -1.0625 5.5625 C-1.07410156 4.73878906 -1.08570312 3.91507813 -1.09765625 3.06640625 C-1 1 -1 1 0 0 Z " fill="#23597C" transform="translate(126,139)"/>
<path d="M0 0 C0.33 0.66 0.66 1.32 1 2 C2.32 1.67 3.64 1.34 5 1 C3.3125 3.0625 3.3125 3.0625 1 5 C-1.75 4.75 -1.75 4.75 -4 4 C-2.68 2.68 -1.36 1.36 0 0 Z " fill="#226B8B" transform="translate(111,109)"/>
<path d="M0 0 C0.99 0.66 1.98 1.32 3 2 C-2.17578125 5.22265625 -2.17578125 5.22265625 -4 6 C-4.99 5.67 -5.98 5.34 -7 5 C-6.030625 4.360625 -5.06125 3.72125 -4.0625 3.0625 C-1.23963731 1.3034741 -1.23963731 1.3034741 0 0 Z " fill="#246183" transform="translate(86,92)"/>
<path d="M0 0 C0.99 0.33 1.98 0.66 3 1 C1.71937515 2.7074998 0.38232443 4.37373596 -1 6 C-1.66 6 -2.32 6 -3 6 C-2.42655063 3.13275314 -2.1385485 2.1385485 0 0 Z " fill="#DFF1F6" transform="translate(84,90)"/>
<path d="M0 0 C-0.33 1.98 -0.66 3.96 -1 6 C-1.5878125 5.01 -1.5878125 5.01 -2.1875 4 C-3.85416667 1.70833333 -3.85416667 1.70833333 -6.6875 1.75 C-7.450625 1.8325 -8.21375 1.915 -9 2 C-4 -1.33333333 -4 -1.33333333 0 0 Z " fill="#CBE8ED" transform="translate(130,75)"/>
<path d="M0 0 C0.33 0.99 0.66 1.98 1 3 C1.66 3.33 2.32 3.66 3 4 C1.02 4.66 -0.96 5.32 -3 6 C-3.33 4.35 -3.66 2.7 -4 1 C-2.68 1.33 -1.36 1.66 0 2 C0 1.34 0 0.68 0 0 Z " fill="#C8E9EB" transform="translate(121,60)"/>
<path d="M0 0 C2 0 2 0 3.625 1.375 C5 3 5 3 5 5 C3.35 5.33 1.7 5.66 0 6 C0 4.02 0 2.04 0 0 Z " fill="#9FA8A7" transform="translate(153,170)"/>
<path d="M0 0 C0.66 0 1.32 0 2 0 C2.66 1.98 3.32 3.96 4 6 C2.35 5.67 0.7 5.34 -1 5 C-0.67 3.35 -0.34 1.7 0 0 Z " fill="#9BA8A7" transform="translate(163,170)"/>
<path d="M0 0 C3.36591866 1.44253657 5.51047079 3.33264727 8 6 C4.00095031 6 2.19799578 4.27413033 -1 2 C-0.67 1.34 -0.34 0.68 0 0 Z " fill="#1E5477" transform="translate(130,19)"/>
<path d="M0 0 C1.98 0 3.96 0 6 0 C4 3 4 3 0.875 3.6875 C-0.07375 3.790625 -1.0225 3.89375 -2 4 C-1.34 2.68 -0.68 1.36 0 0 Z " fill="#2D7E98" transform="translate(114,107)"/>
<path d="M0 0 C1.32 0.33 2.64 0.66 4 1 C3.67 2.32 3.34 3.64 3 5 C2.01 5 1.02 5 0 5 C0 3.35 0 1.7 0 0 Z " fill="#3096AD" transform="translate(113,88)"/>
<path d="M0 0 C1.98 0 3.96 0 6 0 C6 0.33 6 0.66 6 1 C4.35 1 2.7 1 1 1 C1 1.66 1 2.32 1 3 C1.66 3 2.32 3 3 3 C3 3.99 3 4.98 3 6 C2.01 6 1.02 6 0 6 C0 4.02 0 2.04 0 0 Z " fill="#247491" transform="translate(90,55)"/>
</svg>
